<svg width="24" height="24" viewBox="0 0 24 24" fill="none" xmlns="http://www.w3.org/2000/svg">
<path fill-rule="evenodd" clip-rule="evenodd" d="M23.75 11.75C23.75 5.26116 18.4888 0 12 0C5.51116 0 0.25 5.26116 0.25 11.75C0.25 17.6142 4.54621 22.4755 10.1642 23.358V15.1473H7.18004V11.75H10.1642V9.16071C10.1642 6.21616 11.919 4.58859 14.6025 4.58859C15.888 4.58859 17.233 4.81825 17.233 4.81825V7.70994H15.7508C14.2919 7.70994 13.8358 8.61544 13.8358 9.5457V11.7499H17.0941L16.5737 15.1472H13.8357V23.3579C19.4537 22.4771 23.7498 17.6159 23.7498 11.7499L23.75 11.75Z" fill="#1977F3"/>
<path fill-rule="evenodd" clip-rule="evenodd" d="M16.5733 15.1473L17.0938 11.75H13.8354V9.54575C13.8354 8.61713 14.2898 7.70999 15.7505 7.70999H17.2327V4.8183C17.2327 4.8183 15.8877 4.58862 14.6021 4.58862C11.9187 4.58862 10.1639 6.21459 10.1639 9.16076V11.7501H7.17969V15.1474H10.1639V23.3581C10.762 23.4521 11.3751 23.5001 11.9997 23.5001C12.6243 23.5001 13.2373 23.4504 13.8354 23.3581V15.1474H16.5734L16.5733 15.1473Z" fill="#FEFEFE"/>
</svg>
