<svg width="24" height="24" viewBox="0 0 24 24" fill="none" xmlns="http://www.w3.org/2000/svg">
<mask id="mask0_4634_4297" style="mask-type:luminance" maskUnits="userSpaceOnUse" x="0" y="0" width="24" height="24">
<path d="M23.8552 0H0V24H23.8552V0Z" fill="white"/>
</mask>
<g mask="url(#mask0_4634_4297)">
<path d="M23.8544 12.2756C23.8544 11.4599 23.7873 10.6397 23.6441 9.83722H12.166V14.4582H18.739C18.4662 15.9486 17.5899 17.267 16.3066 18.1047V21.103H20.228C22.5308 19.013 23.8544 15.9265 23.8544 12.2756Z" fill="#4285F4"/>
<path d="M12.1675 24.0001C15.4495 24.0001 18.2174 22.9374 20.2339 21.1031L16.3125 18.1048C15.2215 18.8368 13.813 19.2513 12.172 19.2513C8.99726 19.2513 6.30546 17.1391 5.33963 14.2996H1.29297V17.3904C3.35878 21.4428 7.5664 24.0001 12.1675 24.0001Z" fill="#34A853"/>
<path d="M5.3347 14.2994C4.82496 12.8091 4.82496 11.1953 5.3347 9.7049V6.61395H1.29253C-0.433447 10.0047 -0.433447 13.9996 1.29253 17.3903L5.3347 14.2994Z" fill="#FBBC04"/>
<path d="M12.1675 4.7488C13.9024 4.72235 15.5792 5.3661 16.8357 6.54782L20.31 3.12175C18.1101 1.08465 15.1902 -0.0353204 12.1675 -4.58293e-05C7.56639 -4.58293e-05 3.35878 2.55737 1.29297 6.61395L5.33515 9.7049C6.2965 6.86087 8.99278 4.7488 12.1675 4.7488Z" fill="#EA4335"/>
</g>
</svg>
