<svg width="25" height="24" viewBox="0 0 25 24" fill="none" xmlns="http://www.w3.org/2000/svg">
<mask id="mask0_4641_4703" style="mask-type:luminance" maskUnits="userSpaceOnUse" x="0" y="0" width="25" height="24">
<path d="M24.0231 0H0.167969V24H24.0231V0Z" fill="white"/>
</mask>
<g mask="url(#mask0_4641_4703)">
<path d="M24.0243 12.2756C24.0243 11.4599 23.9572 10.6397 23.8141 9.83722H12.3359V14.4582H18.9089C18.6361 15.9486 17.7598 17.267 16.4765 18.1047V21.103H20.3979C22.7008 19.013 24.0243 15.9265 24.0243 12.2756Z" fill="#A1A1AA"/>
<path d="M12.3355 24C15.6175 24 18.3854 22.9373 20.4019 21.103L16.4805 18.1046C15.3895 18.8366 13.981 19.2511 12.3399 19.2511C9.16523 19.2511 6.47342 17.139 5.50759 14.2994H1.46094V17.3903C3.52675 21.4426 7.73437 24 12.3355 24Z" fill="#A1A1AA"/>
<path d="M5.50267 14.2994C4.99292 12.8091 4.99292 11.1953 5.50267 9.7049V6.61395H1.4605C-0.265478 10.0047 -0.265478 13.9996 1.4605 17.3903L5.50267 14.2994Z" fill="#A1A1AA"/>
<path d="M12.3355 4.74893C14.0704 4.72248 15.7472 5.36623 17.0036 6.54794L20.4779 3.12188C18.278 1.08477 15.3582 -0.0351984 12.3355 7.62411e-05C7.73435 7.62411e-05 3.52675 2.55749 1.46094 6.61408L5.50312 9.70503C6.46447 6.86099 9.16075 4.74893 12.3355 4.74893Z" fill="#A1A1AA"/>
</g>
</svg>
