<svg width="141" height="34" viewBox="0 0 141 34" fill="none" xmlns="http://www.w3.org/2000/svg">
<path d="M19.2202 11.2334L8.78887 29.251C8.61009 29.5598 8.28029 29.7499 7.92345 29.7499H2.74842C1.975 29.7499 1.49435 28.9095 1.88649 28.2429L15.0996 5.78074C15.4947 5.10895 16.4725 5.12742 16.842 5.81366L19.2352 10.2582C19.3998 10.5639 19.3941 10.933 19.2202 11.2334Z" stroke="#FAFAFA" stroke-width="2"/>
<path d="M22.1391 17.7069L17.3915 25.7412C16.9976 26.4078 17.4781 27.2499 18.2524 27.2499H27.7476C28.5219 27.2499 29.0024 26.4078 28.6085 25.7412L23.8609 17.7069C23.4739 17.0518 22.5261 17.0518 22.1391 17.7069Z" stroke="#FAFAFA" stroke-width="2"/>
<path d="M29.1622 5.92551L26.7443 10.7613C26.5921 11.0659 26.6052 11.427 26.7792 11.7196L37.2093 29.261C37.3895 29.5641 37.7161 29.7499 38.0688 29.7499L42.781 29.75C43.5479 29.75 44.0294 28.9223 43.6503 28.2557L30.926 5.87842C30.5307 5.18329 29.5199 5.21028 29.1622 5.92551Z" stroke="#FAFAFA" stroke-width="2"/>
<path d="M55.534 10.752V16.744H63.122V19.754H55.534V28H51.754V7.756H64.522V10.752H55.534ZM78.459 13.636V28H76.345C75.8877 28 75.5983 27.79 75.477 27.37L75.239 26.222C74.651 26.8193 74.0023 27.3047 73.293 27.678C72.5837 28.042 71.7483 28.224 70.787 28.224C70.003 28.224 69.3077 28.0933 68.701 27.832C68.1037 27.5613 67.5997 27.1833 67.189 26.698C66.7783 26.2127 66.4657 25.6387 66.251 24.976C66.0457 24.304 65.943 23.5667 65.943 22.764V13.636H69.401V22.764C69.401 23.6413 69.6017 24.3227 70.003 24.808C70.4137 25.284 71.025 25.522 71.837 25.522C72.4343 25.522 72.9943 25.3913 73.517 25.13C74.0397 24.8593 74.5343 24.4907 75.001 24.024V13.636H78.459ZM85.1497 16.128C85.5977 15.2693 86.1297 14.5973 86.7457 14.112C87.3617 13.6173 88.0897 13.37 88.9297 13.37C89.5924 13.37 90.1244 13.5147 90.5257 13.804L90.3017 16.394C90.255 16.562 90.185 16.6833 90.0917 16.758C90.0077 16.8233 89.891 16.856 89.7417 16.856C89.6017 16.856 89.3917 16.8327 89.1117 16.786C88.841 16.7393 88.575 16.716 88.3137 16.716C87.931 16.716 87.5904 16.772 87.2917 16.884C86.993 16.996 86.7224 17.1593 86.4797 17.374C86.2464 17.5793 86.0364 17.8313 85.8497 18.13C85.6724 18.4287 85.5044 18.7693 85.3457 19.152V28H81.8877V13.636H83.9177C84.2724 13.636 84.5197 13.7013 84.6597 13.832C84.7997 13.9533 84.893 14.1773 84.9397 14.504L85.1497 16.128ZM95.567 15.4C95.8563 15.1107 96.1597 14.8447 96.477 14.602C96.8037 14.35 97.1443 14.14 97.499 13.972C97.863 13.7947 98.2503 13.6593 98.661 13.566C99.0717 13.4633 99.5197 13.412 100.005 13.412C100.789 13.412 101.484 13.5473 102.091 13.818C102.698 14.0793 103.202 14.4527 103.603 14.938C104.014 15.414 104.322 15.988 104.527 16.66C104.742 17.3227 104.849 18.0553 104.849 18.858V28H101.391V18.858C101.391 17.9807 101.19 17.304 100.789 16.828C100.388 16.3427 99.7763 16.1 98.955 16.1C98.3577 16.1 97.7977 16.2353 97.275 16.506C96.7523 16.7767 96.2577 17.1453 95.791 17.612V28H92.333V13.636H94.447C94.895 13.636 95.189 13.846 95.329 14.266L95.567 15.4ZM111.722 13.636V28H108.25V13.636H111.722ZM112.198 9.45C112.198 9.74867 112.137 10.0287 112.016 10.29C111.894 10.5513 111.731 10.78 111.526 10.976C111.33 11.172 111.096 11.3307 110.826 11.452C110.555 11.564 110.266 11.62 109.958 11.62C109.659 11.62 109.374 11.564 109.104 11.452C108.842 11.3307 108.614 11.172 108.418 10.976C108.222 10.78 108.063 10.5513 107.942 10.29C107.83 10.0287 107.774 9.74867 107.774 9.45C107.774 9.142 107.83 8.85267 107.942 8.582C108.063 8.31133 108.222 8.078 108.418 7.882C108.614 7.686 108.842 7.532 109.104 7.42C109.374 7.29867 109.659 7.238 109.958 7.238C110.266 7.238 110.555 7.29867 110.826 7.42C111.096 7.532 111.33 7.686 111.526 7.882C111.731 8.078 111.894 8.31133 112.016 8.582C112.137 8.85267 112.198 9.142 112.198 9.45ZM118.509 16.128C118.957 15.2693 119.489 14.5973 120.105 14.112C120.721 13.6173 121.449 13.37 122.289 13.37C122.952 13.37 123.484 13.5147 123.885 13.804L123.661 16.394C123.614 16.562 123.544 16.6833 123.451 16.758C123.367 16.8233 123.25 16.856 123.101 16.856C122.961 16.856 122.751 16.8327 122.471 16.786C122.2 16.7393 121.934 16.716 121.673 16.716C121.29 16.716 120.95 16.772 120.651 16.884C120.352 16.996 120.082 17.1593 119.839 17.374C119.606 17.5793 119.396 17.8313 119.209 18.13C119.032 18.4287 118.864 18.7693 118.705 19.152V28H115.247V13.636H117.277C117.632 13.636 117.879 13.7013 118.019 13.832C118.159 13.9533 118.252 14.1773 118.299 14.504L118.509 16.128ZM131.638 13.412C132.702 13.412 133.668 13.5847 134.536 13.93C135.414 14.2753 136.16 14.7653 136.776 15.4C137.402 16.0347 137.882 16.8093 138.218 17.724C138.554 18.6387 138.722 19.6607 138.722 20.79C138.722 21.9287 138.554 22.9553 138.218 23.87C137.882 24.7847 137.402 25.564 136.776 26.208C136.16 26.852 135.414 27.3467 134.536 27.692C133.668 28.0373 132.702 28.21 131.638 28.21C130.565 28.21 129.59 28.0373 128.712 27.692C127.835 27.3467 127.084 26.852 126.458 26.208C125.842 25.564 125.362 24.7847 125.016 23.87C124.68 22.9553 124.512 21.9287 124.512 20.79C124.512 19.6607 124.68 18.6387 125.016 17.724C125.362 16.8093 125.842 16.0347 126.458 15.4C127.084 14.7653 127.835 14.2753 128.712 13.93C129.59 13.5847 130.565 13.412 131.638 13.412ZM131.638 25.55C132.833 25.55 133.715 25.1487 134.284 24.346C134.863 23.5433 135.152 22.3673 135.152 20.818C135.152 19.2687 134.863 18.088 134.284 17.276C133.715 16.464 132.833 16.058 131.638 16.058C130.425 16.058 129.524 16.4687 128.936 17.29C128.358 18.102 128.068 19.278 128.068 20.818C128.068 22.358 128.358 23.534 128.936 24.346C129.524 25.1487 130.425 25.55 131.638 25.55Z" fill="#FAFAFA"/>
</svg>
