<svg width="106" height="65" viewBox="0 0 106 65" fill="none" xmlns="http://www.w3.org/2000/svg">
<path d="M44.5855 17.7053L19.6322 60.8062C19.2045 61.545 18.4156 61.9998 17.562 61.9998H5.18249C3.33236 61.9998 2.18255 59.9895 3.12061 58.3948L34.7284 4.66176C35.6737 3.05473 38.0125 3.09892 38.8965 4.74051L44.6215 15.3726C45.0151 16.1037 45.0015 16.9867 44.5855 17.7053Z" stroke="#FAFAFA" stroke-width="5"/>
<path d="M51.568 33.1909L40.2111 52.4103C39.2688 54.005 40.4183 56.0194 42.2706 56.0194H64.9843C66.8366 56.0194 67.9861 54.005 67.0438 52.4103L55.6869 33.191C54.761 31.624 52.4939 31.624 51.568 33.1909Z" stroke="#FAFAFA" stroke-width="5"/>
<path d="M68.3685 5.00807L62.5845 16.5761C62.2202 17.3046 62.2517 18.1684 62.668 18.8685L87.6183 60.8302C88.0495 61.5554 88.8308 61.9998 89.6744 61.9998L100.947 62C102.781 62 103.933 60.0201 103.026 58.4253L72.5876 4.89543C71.6421 3.23257 69.224 3.29713 68.3685 5.00807Z" stroke="#FAFAFA" stroke-width="5"/>
</svg>
