<svg width="143" height="34" viewBox="0 0 143 34" fill="none" xmlns="http://www.w3.org/2000/svg">
<path d="M20.2673 10.9019L9.23651 29.955C9.04745 30.2816 8.69869 30.4826 8.32135 30.4826H2.8489C2.03104 30.4826 1.52276 29.594 1.93743 28.889L15.9099 5.13592C16.3278 4.42552 17.3617 4.44506 17.7524 5.17073L20.2832 9.87074C20.4572 10.1939 20.4512 10.5843 20.2673 10.9019Z" stroke="#FAFAFA" stroke-width="2.21029"/>
<path d="M23.354 17.7475L18.3336 26.2435C17.917 26.9485 18.4252 27.839 19.244 27.839H29.2848C30.1036 27.839 30.6117 26.9485 30.1952 26.2435L25.1748 17.7475C24.7655 17.0548 23.7633 17.0548 23.354 17.7475Z" stroke="#FAFAFA" stroke-width="2.21029"/>
<path d="M30.7808 5.28901L28.2239 10.4027C28.0629 10.7248 28.0768 11.1066 28.2608 11.4161L39.2903 29.9656C39.4809 30.2862 39.8263 30.4826 40.1992 30.4827L45.1822 30.4827C45.9932 30.4827 46.5023 29.6075 46.1015 28.9025L32.6458 5.23922C32.2279 4.50414 31.1589 4.53268 30.7808 5.28901Z" stroke="#FAFAFA" stroke-width="2.21029"/>
<path d="M58.034 10.752V16.744H65.622V19.754H58.034V28H54.254V7.756H67.022V10.752H58.034ZM80.959 13.636V28H78.845C78.3877 28 78.0983 27.79 77.977 27.37L77.739 26.222C77.151 26.8193 76.5023 27.3047 75.793 27.678C75.0837 28.042 74.2483 28.224 73.287 28.224C72.503 28.224 71.8077 28.0933 71.201 27.832C70.6037 27.5613 70.0997 27.1833 69.689 26.698C69.2783 26.2127 68.9657 25.6387 68.751 24.976C68.5457 24.304 68.443 23.5667 68.443 22.764V13.636H71.901V22.764C71.901 23.6413 72.1017 24.3227 72.503 24.808C72.9137 25.284 73.525 25.522 74.337 25.522C74.9343 25.522 75.4943 25.3913 76.017 25.13C76.5397 24.8593 77.0343 24.4907 77.501 24.024V13.636H80.959ZM87.6497 16.128C88.0977 15.2693 88.6297 14.5973 89.2457 14.112C89.8617 13.6173 90.5897 13.37 91.4297 13.37C92.0924 13.37 92.6244 13.5147 93.0257 13.804L92.8017 16.394C92.755 16.562 92.685 16.6833 92.5917 16.758C92.5077 16.8233 92.391 16.856 92.2417 16.856C92.1017 16.856 91.8917 16.8327 91.6117 16.786C91.341 16.7393 91.075 16.716 90.8137 16.716C90.431 16.716 90.0904 16.772 89.7917 16.884C89.493 16.996 89.2224 17.1593 88.9797 17.374C88.7464 17.5793 88.5364 17.8313 88.3497 18.13C88.1724 18.4287 88.0044 18.7693 87.8457 19.152V28H84.3877V13.636H86.4177C86.7724 13.636 87.0197 13.7013 87.1597 13.832C87.2997 13.9533 87.393 14.1773 87.4397 14.504L87.6497 16.128ZM98.067 15.4C98.3563 15.1107 98.6597 14.8447 98.977 14.602C99.3037 14.35 99.6443 14.14 99.999 13.972C100.363 13.7947 100.75 13.6593 101.161 13.566C101.572 13.4633 102.02 13.412 102.505 13.412C103.289 13.412 103.984 13.5473 104.591 13.818C105.198 14.0793 105.702 14.4527 106.103 14.938C106.514 15.414 106.822 15.988 107.027 16.66C107.242 17.3227 107.349 18.0553 107.349 18.858V28H103.891V18.858C103.891 17.9807 103.69 17.304 103.289 16.828C102.888 16.3427 102.276 16.1 101.455 16.1C100.858 16.1 100.298 16.2353 99.775 16.506C99.2523 16.7767 98.7577 17.1453 98.291 17.612V28H94.833V13.636H96.947C97.395 13.636 97.689 13.846 97.829 14.266L98.067 15.4ZM114.222 13.636V28H110.75V13.636H114.222ZM114.698 9.45C114.698 9.74867 114.637 10.0287 114.516 10.29C114.394 10.5513 114.231 10.78 114.026 10.976C113.83 11.172 113.596 11.3307 113.326 11.452C113.055 11.564 112.766 11.62 112.458 11.62C112.159 11.62 111.874 11.564 111.604 11.452C111.342 11.3307 111.114 11.172 110.918 10.976C110.722 10.78 110.563 10.5513 110.442 10.29C110.33 10.0287 110.274 9.74867 110.274 9.45C110.274 9.142 110.33 8.85267 110.442 8.582C110.563 8.31133 110.722 8.078 110.918 7.882C111.114 7.686 111.342 7.532 111.604 7.42C111.874 7.29867 112.159 7.238 112.458 7.238C112.766 7.238 113.055 7.29867 113.326 7.42C113.596 7.532 113.83 7.686 114.026 7.882C114.231 8.078 114.394 8.31133 114.516 8.582C114.637 8.85267 114.698 9.142 114.698 9.45ZM121.009 16.128C121.457 15.2693 121.989 14.5973 122.605 14.112C123.221 13.6173 123.949 13.37 124.789 13.37C125.452 13.37 125.984 13.5147 126.385 13.804L126.161 16.394C126.114 16.562 126.044 16.6833 125.951 16.758C125.867 16.8233 125.75 16.856 125.601 16.856C125.461 16.856 125.251 16.8327 124.971 16.786C124.7 16.7393 124.434 16.716 124.173 16.716C123.79 16.716 123.45 16.772 123.151 16.884C122.852 16.996 122.582 17.1593 122.339 17.374C122.106 17.5793 121.896 17.8313 121.709 18.13C121.532 18.4287 121.364 18.7693 121.205 19.152V28H117.747V13.636H119.777C120.132 13.636 120.379 13.7013 120.519 13.832C120.659 13.9533 120.752 14.1773 120.799 14.504L121.009 16.128ZM134.138 13.412C135.202 13.412 136.168 13.5847 137.036 13.93C137.914 14.2753 138.66 14.7653 139.276 15.4C139.902 16.0347 140.382 16.8093 140.718 17.724C141.054 18.6387 141.222 19.6607 141.222 20.79C141.222 21.9287 141.054 22.9553 140.718 23.87C140.382 24.7847 139.902 25.564 139.276 26.208C138.66 26.852 137.914 27.3467 137.036 27.692C136.168 28.0373 135.202 28.21 134.138 28.21C133.065 28.21 132.09 28.0373 131.212 27.692C130.335 27.3467 129.584 26.852 128.958 26.208C128.342 25.564 127.862 24.7847 127.516 23.87C127.18 22.9553 127.012 21.9287 127.012 20.79C127.012 19.6607 127.18 18.6387 127.516 17.724C127.862 16.8093 128.342 16.0347 128.958 15.4C129.584 14.7653 130.335 14.2753 131.212 13.93C132.09 13.5847 133.065 13.412 134.138 13.412ZM134.138 25.55C135.333 25.55 136.215 25.1487 136.784 24.346C137.363 23.5433 137.652 22.3673 137.652 20.818C137.652 19.2687 137.363 18.088 136.784 17.276C136.215 16.464 135.333 16.058 134.138 16.058C132.925 16.058 132.024 16.4687 131.436 17.29C130.858 18.102 130.568 19.278 130.568 20.818C130.568 22.358 130.858 23.534 131.436 24.346C132.024 25.1487 132.925 25.55 134.138 25.55Z" fill="#FAFAFA"/>
</svg>
