<svg width="25" height="24" viewBox="0 0 25 24" fill="none" xmlns="http://www.w3.org/2000/svg">
<mask id="mask0_4641_4693" style="mask-type:luminance" maskUnits="userSpaceOnUse" x="0" y="0" width="25" height="24">
<path d="M24.3139 0H0.5V24H24.3139V0Z" fill="white"/>
</mask>
<g mask="url(#mask0_4641_4693)">
<path d="M7.26571 23.1863L7.75267 20.5443L6.66795 20.5228H1.48828L5.08787 1.02747C5.09905 0.968621 5.13537 0.913744 5.18844 0.874774C5.24151 0.835804 5.30947 0.814331 5.38024 0.814331H14.1139C17.0133 0.814331 19.0142 1.32969 20.0588 2.34688C20.5486 2.82407 20.8606 3.32273 21.0114 3.8715C21.1696 4.4473 21.1726 5.13523 21.0178 5.97428L21.0067 6.03553V6.57315L21.4965 6.81015C21.909 6.99705 22.2368 7.21098 22.4881 7.45595C22.9072 7.86393 23.178 8.38248 23.2926 8.99725C23.4108 9.62951 23.3718 10.3819 23.178 11.2336C22.9546 12.2135 22.5933 13.0668 22.1055 13.7651C21.6567 14.4085 21.085 14.9422 20.4061 15.3557C19.7582 15.7486 18.9881 16.0469 18.1176 16.2377C17.274 16.4254 16.3122 16.5201 15.2573 16.5201H14.5776C14.0915 16.5201 13.6195 16.6696 13.2489 16.9376C12.8774 17.2111 12.6316 17.5849 12.5562 17.9938L12.505 18.2316L11.6446 22.8881L11.6055 23.0591C11.5953 23.1131 11.5776 23.1403 11.5515 23.1584C11.5282 23.1751 11.4947 23.1863 11.4621 23.1863H7.26571Z" fill="#71717A"/>
<path d="M21.9596 6.0976C21.9335 6.23996 21.9038 6.3855 21.8702 6.53501C20.7184 11.586 16.7781 13.3309 11.7455 13.3309H9.18318C8.56772 13.3309 8.04911 13.7127 7.95321 14.2312L6.64128 21.3381L6.26979 23.3526C6.20739 23.693 6.51465 24 6.91689 24H11.4616C11.9997 24 12.4569 23.666 12.5416 23.2126L12.5863 23.0153L13.442 18.3771L13.4969 18.1226C13.5807 17.6678 14.0388 17.3336 14.577 17.3336H15.2567C19.6598 17.3336 23.1067 15.8067 24.1141 11.388C24.535 9.54208 24.3171 8.00076 23.2035 6.91676C22.8665 6.5899 22.4484 6.3187 21.9596 6.0976Z" fill="#A1A1AA"/>
<path d="M20.7547 5.68722C20.5787 5.64349 20.3972 5.60372 20.2109 5.56794C20.0238 5.53294 19.832 5.50192 19.6346 5.47489C18.9437 5.37944 18.1868 5.33411 17.3758 5.33411H10.5304C10.3619 5.33411 10.2017 5.36672 10.0583 5.42557C9.74269 5.55521 9.50805 5.81051 9.45125 6.12306L7.99502 14.0014L7.95312 14.2312C8.04903 13.7127 8.56764 13.3309 9.1831 13.3309H11.7455C16.778 13.3309 20.7184 11.5852 21.8702 6.53502C21.9045 6.38551 21.9334 6.23997 21.9596 6.09761C21.6681 5.96559 21.3525 5.85266 21.0126 5.75642C20.9287 5.73256 20.8423 5.70951 20.7547 5.68722Z" fill="#3F3F46"/>
<path d="M9.45151 6.12307C9.50831 5.81052 9.74295 5.55522 10.0586 5.42638C10.2029 5.36753 10.3621 5.33492 10.5306 5.33492H17.376C18.187 5.33492 18.944 5.38025 19.6349 5.4757C19.8323 5.50273 20.0241 5.53375 20.2112 5.56875C20.3974 5.60453 20.579 5.6443 20.755 5.68803C20.8424 5.71032 20.9291 5.73337 21.0138 5.75643C21.3537 5.85267 21.6694 5.9664 21.9607 6.09762C22.3033 4.23103 21.958 2.96013 20.7763 1.80932C19.4738 0.5424 17.1228 0 14.1144 0H5.38078C4.76624 0 4.24205 0.381748 4.14708 0.901083L0.509301 20.5968C0.437606 20.9865 0.789559 21.3382 1.24952 21.3382H6.64146L7.99528 14.0014L9.45151 6.12307Z" fill="#71717A"/>
</g>
</svg>
